# xmcd
#
# Track frame offsets:
#	150
#	27138
#	52253
#	76324
#	99070
#	117667
#	140176
#	160193
#	183142
#	201043
#	227905
#	260052
#
# Disc length: 3705 seconds
#
# Revision: 1
# Processed by: cddbd v1.5.2PL0 Copyright (c) Steve Scherf et al.
# Submitted via: EasyCDDAExtractor 16.0.9.1
#
DISCID=a40e770c
DTITLE=Hoàng Oanh - HOCD15: Tình Đầu
DYEAR=1999
DGENRE=Country
TTITLE0=Bến Giang Đầu (Lê Trọng Nguyễn)
TTITLE1=Tình Yêu Trả Lại Trăng Sao (Lê Dinh)
TTITLE2=Đời Tôi Chỉ Một Người (Huỳnh Anh)
TTITLE3=Bạn Cùng Tôi (Dương Thiệu Tước)
TTITLE4=Đừng Trách Gì Nhau (Cao Hoàng - Diễm Trang)
TTITLE5=Vòng Tay Giữ Trọn Ân Tình (Y Vân - Đỗ Kim Bảng)
TTITLE6=Lá Vàng Rơi (Minh Kỳ)
TTITLE7=Thế Rồi Một Mùa Hè (Phạm Mạnh Cương)
TTITLE8=Tình Đầu (Hoàng Trọng - Hồ Đình Phương)
TTITLE9=Em Chờ Anh Trở Lại (Hoàng Nguyên)
TTITLE10=Tình Khúc Thứ Nhất (Vũ Thành An)
TTITLE11=Nếu Anh Về Bên Em (Huỳnh Anh)
EXTD=
EXTT0=
EXTT1=
EXTT2=
EXTT3=
EXTT4=
EXTT5=
EXTT6=
EXTT7=
EXTT8=
EXTT9=
EXTT10=
EXTT11=
PLAYORDER=
